ISO-10303-21;
HEADER;
/* Generated by software containing ST-Developer
 * from STEP Tools, Inc. (www.steptools.com) 
 */
/* OPTION: using custom renumber hook */

FILE_DESCRIPTION(
/* description */ ('STEP AP242 Edition 2',
'CAx-IF Rec.Pracs.---Representation and Presentation of Product Manufa
cturing Information (PMI)---4.0---2014-10-13',
'CAx-IF Rec.Pracs.---3D Tessellated Geometry---0.4---2014-09-14','2;1',
'CAx-IF Rec.Pracs.---User Defined Attributes---1.5---2016-08-15'),
/* implementation_level */ '2;1');

FILE_NAME(
/* name */ 'Custom Hackpad Case',
/* time_stamp */ '2026-08-06T19:28:33Z',
/* author */ (''),
/* organization */ (''),
/* preprocessor_version */ 'ST-DEVELOPER v20',
/* originating_system */ 'ONSHAPE BY PTC INC, 1.218',
/* authorisation */ '  ');

FILE_SCHEMA (('AP242_MANAGED_MODEL_BASED_3D_ENGINEERING_MIM_LF { 1 0 10303 442 3 1 4 }'));
ENDSEC;

DATA;
#10=SHAPE_REPRESENTATION_RELATIONSHIP('','',#375,#11);
#11=ADVANCED_BREP_SHAPE_REPRESENTATION('',(#373),#605);
#12=CIRCLE('',#386,0.00145);
#13=CIRCLE('',#387,0.00145);
#14=CIRCLE('',#389,0.00145);
#15=CIRCLE('',#390,0.00145);
#16=CIRCLE('',#392,0.00145);
#17=CIRCLE('',#393,0.00145);
#18=CIRCLE('',#395,0.00145);
#19=CIRCLE('',#396,0.00145);
#20=CYLINDRICAL_SURFACE('',#385,0.00145);
#21=CYLINDRICAL_SURFACE('',#388,0.00145);
#22=CYLINDRICAL_SURFACE('',#391,0.00145);
#23=CYLINDRICAL_SURFACE('',#394,0.00145);
#24=ORIENTED_EDGE('',*,*,#112,.T.);
#25=ORIENTED_EDGE('',*,*,#113,.F.);
#26=ORIENTED_EDGE('',*,*,#114,.F.);
#27=ORIENTED_EDGE('',*,*,#115,.T.);
#28=ORIENTED_EDGE('',*,*,#116,.T.);
#29=ORIENTED_EDGE('',*,*,#117,.T.);
#30=ORIENTED_EDGE('',*,*,#118,.F.);
#31=ORIENTED_EDGE('',*,*,#119,.F.);
#32=ORIENTED_EDGE('',*,*,#120,.T.);
#33=ORIENTED_EDGE('',*,*,#121,.T.);
#34=ORIENTED_EDGE('',*,*,#112,.F.);
#35=ORIENTED_EDGE('',*,*,#122,.F.);
#36=ORIENTED_EDGE('',*,*,#123,.F.);
#37=ORIENTED_EDGE('',*,*,#124,.T.);
#38=ORIENTED_EDGE('',*,*,#125,.T.);
#39=ORIENTED_EDGE('',*,*,#126,.F.);
#40=ORIENTED_EDGE('',*,*,#127,.F.);
#41=ORIENTED_EDGE('',*,*,#128,.T.);
#42=ORIENTED_EDGE('',*,*,#129,.T.);
#43=ORIENTED_EDGE('',*,*,#130,.F.);
#44=ORIENTED_EDGE('',*,*,#131,.F.);
#45=ORIENTED_EDGE('',*,*,#128,.F.);
#46=ORIENTED_EDGE('',*,*,#132,.T.);
#47=ORIENTED_EDGE('',*,*,#133,.T.);
#48=ORIENTED_EDGE('',*,*,#134,.F.);
#49=ORIENTED_EDGE('',*,*,#133,.F.);
#50=ORIENTED_EDGE('',*,*,#135,.T.);
#51=ORIENTED_EDGE('',*,*,#136,.T.);
#52=ORIENTED_EDGE('',*,*,#126,.T.);
#53=ORIENTED_EDGE('',*,*,#137,.T.);
#54=ORIENTED_EDGE('',*,*,#136,.F.);
#55=ORIENTED_EDGE('',*,*,#138,.F.);
#56=ORIENTED_EDGE('',*,*,#120,.F.);
#57=ORIENTED_EDGE('',*,*,#139,.F.);
#58=ORIENTED_EDGE('',*,*,#140,.T.);
#59=ORIENTED_EDGE('',*,*,#141,.T.);
#60=ORIENTED_EDGE('',*,*,#122,.T.);
#61=ORIENTED_EDGE('',*,*,#115,.F.);
#62=ORIENTED_EDGE('',*,*,#142,.F.);
#63=ORIENTED_EDGE('',*,*,#139,.T.);
#64=ORIENTED_EDGE('',*,*,#143,.F.);
#65=ORIENTED_EDGE('',*,*,#144,.T.);
#66=ORIENTED_EDGE('',*,*,#145,.F.);
#67=ORIENTED_EDGE('',*,*,#146,.T.);
#68=ORIENTED_EDGE('',*,*,#147,.F.);
#69=ORIENTED_EDGE('',*,*,#148,.T.);
#70=ORIENTED_EDGE('',*,*,#149,.F.);
#71=ORIENTED_EDGE('',*,*,#150,.T.);
#72=ORIENTED_EDGE('',*,*,#121,.F.);
#73=ORIENTED_EDGE('',*,*,#141,.F.);
#74=ORIENTED_EDGE('',*,*,#151,.T.);
#75=ORIENTED_EDGE('',*,*,#113,.T.);
#76=ORIENTED_EDGE('',*,*,#132,.F.);
#77=ORIENTED_EDGE('',*,*,#127,.T.);
#78=ORIENTED_EDGE('',*,*,#138,.T.);
#79=ORIENTED_EDGE('',*,*,#135,.F.);
#80=ORIENTED_EDGE('',*,*,#150,.F.);
#81=ORIENTED_EDGE('',*,*,#148,.F.);
#82=ORIENTED_EDGE('',*,*,#146,.F.);
#83=ORIENTED_EDGE('',*,*,#144,.F.);
#84=ORIENTED_EDGE('',*,*,#140,.F.);
#85=ORIENTED_EDGE('',*,*,#142,.T.);
#86=ORIENTED_EDGE('',*,*,#114,.T.);
#87=ORIENTED_EDGE('',*,*,#151,.F.);
#88=ORIENTED_EDGE('',*,*,#125,.F.);
#89=ORIENTED_EDGE('',*,*,#152,.T.);
#90=ORIENTED_EDGE('',*,*,#118,.T.);
#91=ORIENTED_EDGE('',*,*,#153,.F.);
#92=ORIENTED_EDGE('',*,*,#129,.F.);
#93=ORIENTED_EDGE('',*,*,#131,.T.);
#94=ORIENTED_EDGE('',*,*,#134,.T.);
#95=ORIENTED_EDGE('',*,*,#137,.F.);
#96=ORIENTED_EDGE('',*,*,#149,.T.);
#97=ORIENTED_EDGE('',*,*,#147,.T.);
#98=ORIENTED_EDGE('',*,*,#145,.T.);
#99=ORIENTED_EDGE('',*,*,#143,.T.);
#100=ORIENTED_EDGE('',*,*,#123,.T.);
#101=ORIENTED_EDGE('',*,*,#154,.T.);
#102=ORIENTED_EDGE('',*,*,#116,.F.);
#103=ORIENTED_EDGE('',*,*,#155,.F.);
#104=ORIENTED_EDGE('',*,*,#155,.T.);
#105=ORIENTED_EDGE('',*,*,#119,.T.);
#106=ORIENTED_EDGE('',*,*,#152,.F.);
#107=ORIENTED_EDGE('',*,*,#124,.F.);
#108=ORIENTED_EDGE('',*,*,#130,.T.);
#109=ORIENTED_EDGE('',*,*,#153,.T.);
#110=ORIENTED_EDGE('',*,*,#117,.F.);
#111=ORIENTED_EDGE('',*,*,#154,.F.);
#112=EDGE_CURVE('',#156,#157,#188,.T.);
#113=EDGE_CURVE('',#158,#157,#189,.T.);
#114=EDGE_CURVE('',#159,#158,#190,.T.);
#115=EDGE_CURVE('',#159,#156,#191,.T.);
#116=EDGE_CURVE('',#160,#161,#192,.T.);
#117=EDGE_CURVE('',#161,#162,#193,.T.);
#118=EDGE_CURVE('',#163,#162,#194,.T.);
#119=EDGE_CURVE('',#160,#163,#195,.T.);
#120=EDGE_CURVE('',#164,#165,#196,.T.);
#121=EDGE_CURVE('',#165,#157,#197,.T.);
#122=EDGE_CURVE('',#164,#156,#198,.T.);
#123=EDGE_CURVE('',#166,#167,#199,.T.);
#124=EDGE_CURVE('',#166,#168,#200,.T.);
#125=EDGE_CURVE('',#168,#169,#201,.T.);
#126=EDGE_CURVE('',#170,#169,#202,.T.);
#127=EDGE_CURVE('',#171,#170,#203,.T.);
#128=EDGE_CURVE('',#171,#172,#204,.T.);
#129=EDGE_CURVE('',#172,#173,#205,.T.);
#130=EDGE_CURVE('',#167,#173,#206,.T.);
#131=EDGE_CURVE('',#172,#174,#207,.T.);
#132=EDGE_CURVE('',#171,#175,#208,.T.);
#133=EDGE_CURVE('',#175,#174,#209,.T.);
#134=EDGE_CURVE('',#174,#176,#210,.T.);
#135=EDGE_CURVE('',#175,#177,#211,.T.);
#136=EDGE_CURVE('',#177,#176,#212,.T.);
#137=EDGE_CURVE('',#169,#176,#213,.T.);
#138=EDGE_CURVE('',#170,#177,#214,.T.);
#139=EDGE_CURVE('',#178,#164,#215,.T.);
#140=EDGE_CURVE('',#178,#179,#216,.T.);
#141=EDGE_CURVE('',#179,#165,#217,.T.);
#142=EDGE_CURVE('',#178,#159,#218,.T.);
#143=EDGE_CURVE('',#180,#180,#12,.T.);
#144=EDGE_CURVE('',#181,#181,#13,.T.);
#145=EDGE_CURVE('',#182,#182,#14,.T.);
#146=EDGE_CURVE('',#183,#183,#15,.T.);
#147=EDGE_CURVE('',#184,#184,#16,.T.);
#148=EDGE_CURVE('',#185,#185,#17,.T.);
#149=EDGE_CURVE('',#186,#186,#18,.T.);
#150=EDGE_CURVE('',#187,#187,#19,.T.);
#151=EDGE_CURVE('',#179,#158,#219,.T.);
#152=EDGE_CURVE('',#168,#163,#220,.T.);
#153=EDGE_CURVE('',#173,#162,#221,.T.);
#154=EDGE_CURVE('',#167,#161,#222,.T.);
#155=EDGE_CURVE('',#166,#160,#223,.T.);
#156=VERTEX_POINT('',#508);
#157=VERTEX_POINT('',#509);
#158=VERTEX_POINT('',#511);
#159=VERTEX_POINT('',#513);
#160=VERTEX_POINT('',#516);
#161=VERTEX_POINT('',#517);
#162=VERTEX_POINT('',#519);
#163=VERTEX_POINT('',#521);
#164=VERTEX_POINT('',#525);
#165=VERTEX_POINT('',#526);
#166=VERTEX_POINT('',#531);
#167=VERTEX_POINT('',#532);
#168=VERTEX_POINT('',#534);
#169=VERTEX_POINT('',#536);
#170=VERTEX_POINT('',#538);
#171=VERTEX_POINT('',#540);
#172=VERTEX_POINT('',#542);
#173=VERTEX_POINT('',#544);
#174=VERTEX_POINT('',#548);
#175=VERTEX_POINT('',#550);
#176=VERTEX_POINT('',#554);
#177=VERTEX_POINT('',#556);
#178=VERTEX_POINT('',#563);
#179=VERTEX_POINT('',#565);
#180=VERTEX_POINT('',#571);
#181=VERTEX_POINT('',#573);
#182=VERTEX_POINT('',#576);
#183=VERTEX_POINT('',#578);
#184=VERTEX_POINT('',#581);
#185=VERTEX_POINT('',#583);
#186=VERTEX_POINT('',#586);
#187=VERTEX_POINT('',#588);
#188=LINE('',#507,#224);
#189=LINE('',#510,#225);
#190=LINE('',#512,#226);
#191=LINE('',#514,#227);
#192=LINE('',#515,#228);
#193=LINE('',#518,#229);
#194=LINE('',#520,#230);
#195=LINE('',#522,#231);
#196=LINE('',#524,#232);
#197=LINE('',#527,#233);
#198=LINE('',#528,#234);
#199=LINE('',#530,#235);
#200=LINE('',#533,#236);
#201=LINE('',#535,#237);
#202=LINE('',#537,#238);
#203=LINE('',#539,#239);
#204=LINE('',#541,#240);
#205=LINE('',#543,#241);
#206=LINE('',#545,#242);
#207=LINE('',#547,#243);
#208=LINE('',#549,#244);
#209=LINE('',#551,#245);
#210=LINE('',#553,#246);
#211=LINE('',#555,#247);
#212=LINE('',#557,#248);
#213=LINE('',#559,#249);
#214=LINE('',#560,#250);
#215=LINE('',#562,#251);
#216=LINE('',#564,#252);
#217=LINE('',#566,#253);
#218=LINE('',#568,#254);
#219=LINE('',#590,#255);
#220=LINE('',#593,#256);
#221=LINE('',#594,#257);
#222=LINE('',#600,#258);
#223=LINE('',#601,#259);
#224=VECTOR('',#411,1.);
#225=VECTOR('',#412,1.);
#226=VECTOR('',#413,1.);
#227=VECTOR('',#414,1.);
#228=VECTOR('',#415,1.);
#229=VECTOR('',#416,1.);
#230=VECTOR('',#417,1.);
#231=VECTOR('',#418,1.);
#232=VECTOR('',#421,1.);
#233=VECTOR('',#422,1.);
#234=VECTOR('',#423,1.);
#235=VECTOR('',#426,1.);
#236=VECTOR('',#427,1.);
#237=VECTOR('',#428,1.);
#238=VECTOR('',#429,1.);
#239=VECTOR('',#430,1.);
#240=VECTOR('',#431,1.);
#241=VECTOR('',#432,1.);
#242=VECTOR('',#433,1.);
#243=VECTOR('',#436,1.);
#244=VECTOR('',#437,1.);
#245=VECTOR('',#438,1.);
#246=VECTOR('',#441,1.);
#247=VECTOR('',#442,1.);
#248=VECTOR('',#443,1.);
#249=VECTOR('',#446,1.);
#250=VECTOR('',#447,1.);
#251=VECTOR('',#450,1.);
#252=VECTOR('',#451,1.);
#253=VECTOR('',#452,1.);
#254=VECTOR('',#455,1.);
#255=VECTOR('',#482,1.);
#256=VECTOR('',#487,1.);
#257=VECTOR('',#488,1.);
#258=VECTOR('',#499,1.);
#259=VECTOR('',#500,1.);
#260=EDGE_LOOP('',(#24,#25,#26,#27));
#261=EDGE_LOOP('',(#28,#29,#30,#31));
#262=EDGE_LOOP('',(#32,#33,#34,#35));
#263=EDGE_LOOP('',(#36,#37,#38,#39,#40,#41,#42,#43));
#264=EDGE_LOOP('',(#44,#45,#46,#47));
#265=EDGE_LOOP('',(#48,#49,#50,#51));
#266=EDGE_LOOP('',(#52,#53,#54,#55));
#267=EDGE_LOOP('',(#56,#57,#58,#59));
#268=EDGE_LOOP('',(#60,#61,#62,#63));
#269=EDGE_LOOP('',(#64));
#270=EDGE_LOOP('',(#65));
#271=EDGE_LOOP('',(#66));
#272=EDGE_LOOP('',(#67));
#273=EDGE_LOOP('',(#68));
#274=EDGE_LOOP('',(#69));
#275=EDGE_LOOP('',(#70));
#276=EDGE_LOOP('',(#71));
#277=EDGE_LOOP('',(#72,#73,#74,#75));
#278=EDGE_LOOP('',(#76,#77,#78,#79));
#279=EDGE_LOOP('',(#80));
#280=EDGE_LOOP('',(#81));
#281=EDGE_LOOP('',(#82));
#282=EDGE_LOOP('',(#83));
#283=EDGE_LOOP('',(#84,#85,#86,#87));
#284=EDGE_LOOP('',(#88,#89,#90,#91,#92,#93,#94,#95));
#285=EDGE_LOOP('',(#96));
#286=EDGE_LOOP('',(#97));
#287=EDGE_LOOP('',(#98));
#288=EDGE_LOOP('',(#99));
#289=EDGE_LOOP('',(#100,#101,#102,#103));
#290=EDGE_LOOP('',(#104,#105,#106,#107));
#291=EDGE_LOOP('',(#108,#109,#110,#111));
#292=FACE_BOUND('',#260,.T.);
#293=FACE_BOUND('',#261,.T.);
#294=FACE_BOUND('',#262,.T.);
#295=FACE_BOUND('',#263,.T.);
#296=FACE_BOUND('',#264,.T.);
#297=FACE_BOUND('',#265,.T.);
#298=FACE_BOUND('',#266,.T.);
#299=FACE_BOUND('',#267,.T.);
#300=FACE_BOUND('',#268,.T.);
#301=FACE_BOUND('',#269,.T.);
#302=FACE_BOUND('',#270,.T.);
#303=FACE_BOUND('',#271,.T.);
#304=FACE_BOUND('',#272,.T.);
#305=FACE_BOUND('',#273,.T.);
#306=FACE_BOUND('',#274,.T.);
#307=FACE_BOUND('',#275,.T.);
#308=FACE_BOUND('',#276,.T.);
#309=FACE_BOUND('',#277,.T.);
#310=FACE_BOUND('',#278,.T.);
#311=FACE_BOUND('',#279,.T.);
#312=FACE_BOUND('',#280,.T.);
#313=FACE_BOUND('',#281,.T.);
#314=FACE_BOUND('',#282,.T.);
#315=FACE_BOUND('',#283,.T.);
#316=FACE_BOUND('',#284,.T.);
#317=FACE_BOUND('',#285,.T.);
#318=FACE_BOUND('',#286,.T.);
#319=FACE_BOUND('',#287,.T.);
#320=FACE_BOUND('',#288,.T.);
#321=FACE_BOUND('',#289,.T.);
#322=FACE_BOUND('',#290,.T.);
#323=FACE_BOUND('',#291,.T.);
#324=PLANE('',#377);
#325=PLANE('',#378);
#326=PLANE('',#379);
#327=PLANE('',#380);
#328=PLANE('',#381);
#329=PLANE('',#382);
#330=PLANE('',#383);
#331=PLANE('',#384);
#332=PLANE('',#397);
#333=PLANE('',#398);
#334=PLANE('',#399);
#335=PLANE('',#400);
#336=PLANE('',#401);
#337=PLANE('',#402);
#338=PLANE('',#403);
#339=PLANE('',#404);
#340=PLANE('',#405);
#341=PLANE('',#406);
#342=ADVANCED_FACE('',(#292,#293),#324,.F.);
#343=ADVANCED_FACE('',(#294),#325,.F.);
#344=ADVANCED_FACE('',(#295),#326,.F.);
#345=ADVANCED_FACE('',(#296),#327,.T.);
#346=ADVANCED_FACE('',(#297),#328,.T.);
#347=ADVANCED_FACE('',(#298),#329,.F.);
#348=ADVANCED_FACE('',(#299),#330,.T.);
#349=ADVANCED_FACE('',(#300),#331,.F.);
#350=ADVANCED_FACE('',(#301,#302),#20,.F.);
#351=ADVANCED_FACE('',(#303,#304),#21,.F.);
#352=ADVANCED_FACE('',(#305,#306),#22,.F.);
#353=ADVANCED_FACE('',(#307,#308),#23,.F.);
#354=ADVANCED_FACE('',(#309),#332,.T.);
#355=ADVANCED_FACE('',(#310,#311,#312,#313,#314,#315),#333,.T.);
#356=ADVANCED_FACE('',(#316),#334,.T.);
#357=ADVANCED_FACE('',(#317),#335,.T.);
#358=ADVANCED_FACE('',(#318),#336,.T.);
#359=ADVANCED_FACE('',(#319),#337,.T.);
#360=ADVANCED_FACE('',(#320),#338,.T.);
#361=ADVANCED_FACE('',(#321),#339,.T.);
#362=ADVANCED_FACE('',(#322),#340,.F.);
#363=ADVANCED_FACE('',(#323),#341,.T.);
#364=CLOSED_SHELL('',(#342,#343,#344,#345,#346,#347,#348,#349,#350,#351,
#352,#353,#354,#355,#356,#357,#358,#359,#360,#361,#362,#363));
#365=STYLED_ITEM('',(#366),#373);
#366=PRESENTATION_STYLE_ASSIGNMENT((#367));
#367=SURFACE_STYLE_USAGE(.BOTH.,#368);
#368=SURFACE_SIDE_STYLE('',(#369));
#369=SURFACE_STYLE_FILL_AREA(#370);
#370=FILL_AREA_STYLE('',(#371));
#371=FILL_AREA_STYLE_COLOUR('',#372);
#372=COLOUR_RGB('',0.615686274509804,0.811764705882353,0.929411764705882);
#373=MANIFOLD_SOLID_BREP('Part 1',#364);
#374=SHAPE_DEFINITION_REPRESENTATION(#610,#375);
#375=SHAPE_REPRESENTATION('Part 1',(#376),#605);
#376=AXIS2_PLACEMENT_3D('',#505,#407,#408);
#377=AXIS2_PLACEMENT_3D('',#506,#409,#410);
#378=AXIS2_PLACEMENT_3D('',#523,#419,#420);
#379=AXIS2_PLACEMENT_3D('',#529,#424,#425);
#380=AXIS2_PLACEMENT_3D('',#546,#434,#435);
#381=AXIS2_PLACEMENT_3D('',#552,#439,#440);
#382=AXIS2_PLACEMENT_3D('',#558,#444,#445);
#383=AXIS2_PLACEMENT_3D('',#561,#448,#449);
#384=AXIS2_PLACEMENT_3D('',#567,#453,#454);
#385=AXIS2_PLACEMENT_3D('',#569,#456,#457);
#386=AXIS2_PLACEMENT_3D('',#570,#458,#459);
#387=AXIS2_PLACEMENT_3D('',#572,#460,#461);
#388=AXIS2_PLACEMENT_3D('',#574,#462,#463);
#389=AXIS2_PLACEMENT_3D('',#575,#464,#465);
#390=AXIS2_PLACEMENT_3D('',#577,#466,#467);
#391=AXIS2_PLACEMENT_3D('',#579,#468,#469);
#392=AXIS2_PLACEMENT_3D('',#580,#470,#471);
#393=AXIS2_PLACEMENT_3D('',#582,#472,#473);
#394=AXIS2_PLACEMENT_3D('',#584,#474,#475);
#395=AXIS2_PLACEMENT_3D('',#585,#476,#477);
#396=AXIS2_PLACEMENT_3D('',#587,#478,#479);
#397=AXIS2_PLACEMENT_3D('',#589,#480,#481);
#398=AXIS2_PLACEMENT_3D('',#591,#483,#484);
#399=AXIS2_PLACEMENT_3D('',#592,#485,#486);
#400=AXIS2_PLACEMENT_3D('',#595,#489,#490);
#401=AXIS2_PLACEMENT_3D('',#596,#491,#492);
#402=AXIS2_PLACEMENT_3D('',#597,#493,#494);
#403=AXIS2_PLACEMENT_3D('',#598,#495,#496);
#404=AXIS2_PLACEMENT_3D('',#599,#497,#498);
#405=AXIS2_PLACEMENT_3D('',#602,#501,#502);
#406=AXIS2_PLACEMENT_3D('',#603,#503,#504);
#407=DIRECTION('',(0.,0.,1.));
#408=DIRECTION('',(1.,0.,0.));
#409=DIRECTION('',(0.,-1.,0.));
#410=DIRECTION('',(0.,0.,-1.));
#411=DIRECTION('',(-1.,0.,0.));
#412=DIRECTION('',(0.,0.,-1.));
#413=DIRECTION('',(-1.,0.,0.));
#414=DIRECTION('',(0.,0.,-1.));
#415=DIRECTION('',(-1.,0.,2.39272203583008E-16));
#416=DIRECTION('',(0.,0.,-1.));
#417=DIRECTION('',(-1.,0.,0.));
#418=DIRECTION('',(0.,0.,-1.));
#419=DIRECTION('',(0.,0.,1.));
#420=DIRECTION('',(1.,0.,0.));
#421=DIRECTION('',(-1.,-2.83799341673097E-16,0.));
#422=DIRECTION('',(-3.97075473757209E-16,1.,0.));
#423=DIRECTION('',(-3.97075473757209E-16,1.,0.));
#424=DIRECTION('',(0.,1.,0.));
#425=DIRECTION('',(0.,0.,1.));
#426=DIRECTION('',(-1.,0.,2.39272203583008E-16));
#427=DIRECTION('',(0.,0.,-1.));
#428=DIRECTION('',(1.,0.,0.));
#429=DIRECTION('',(0.,0.,-1.));
#430=DIRECTION('',(1.,0.,0.));
#431=DIRECTION('',(0.,0.,-1.));
#432=DIRECTION('',(1.,0.,0.));
#433=DIRECTION('',(0.,0.,-1.));
#434=DIRECTION('',(1.,5.60492237795414E-17,0.));
#435=DIRECTION('',(-5.60492237795414E-17,1.,0.));
#436=DIRECTION('',(5.60492237795414E-17,-1.,0.));
#437=DIRECTION('',(5.60492237795414E-17,-1.,0.));
#438=DIRECTION('',(0.,0.,-1.));
#439=DIRECTION('',(0.,1.,0.));
#440=DIRECTION('',(0.,0.,1.));
#441=DIRECTION('',(1.,0.,0.));
#442=DIRECTION('',(1.,0.,0.));
#443=DIRECTION('',(0.,0.,-1.));
#444=DIRECTION('',(1.,5.60492237795414E-17,0.));
#445=DIRECTION('',(-5.60492237795414E-17,1.,0.));
#446=DIRECTION('',(5.60492237795414E-17,-1.,0.));
#447=DIRECTION('',(5.60492237795414E-17,-1.,0.));
#448=DIRECTION('',(2.83799341673097E-16,-1.,0.));
#449=DIRECTION('',(1.,2.83799341673097E-16,0.));
#450=DIRECTION('',(0.,0.,-1.));
#451=DIRECTION('',(-1.,-2.83799341673097E-16,0.));
#452=DIRECTION('',(0.,0.,-1.));
#453=DIRECTION('',(-1.,-3.97075473757209E-16,0.));
#454=DIRECTION('',(3.97075473757209E-16,-1.,0.));
#455=DIRECTION('',(-3.97075473757209E-16,1.,0.));
#456=DIRECTION('',(0.,0.,-1.));
#457=DIRECTION('',(-1.,0.,0.));
#458=DIRECTION('',(0.,0.,1.));
#459=DIRECTION('',(1.,0.,0.));
#460=DIRECTION('',(0.,0.,1.));
#461=DIRECTION('',(1.,0.,0.));
#462=DIRECTION('',(0.,0.,-1.));
#463=DIRECTION('',(-1.,0.,0.));
#464=DIRECTION('',(0.,0.,1.));
#465=DIRECTION('',(1.,0.,0.));
#466=DIRECTION('',(0.,0.,1.));
#467=DIRECTION('',(1.,0.,0.));
#468=DIRECTION('',(0.,0.,-1.));
#469=DIRECTION('',(-1.,0.,0.));
#470=DIRECTION('',(0.,0.,1.));
#471=DIRECTION('',(1.,0.,0.));
#472=DIRECTION('',(0.,0.,1.));
#473=DIRECTION('',(1.,0.,0.));
#474=DIRECTION('',(0.,0.,-1.));
#475=DIRECTION('',(-1.,0.,0.));
#476=DIRECTION('',(0.,0.,1.));
#477=DIRECTION('',(1.,0.,0.));
#478=DIRECTION('',(0.,0.,1.));
#479=DIRECTION('',(1.,0.,0.));
#480=DIRECTION('',(-1.,-3.97075473757209E-16,0.));
#481=DIRECTION('',(3.97075473757209E-16,-1.,0.));
#482=DIRECTION('',(-3.97075473757209E-16,1.,0.));
#483=DIRECTION('',(0.,0.,1.));
#484=DIRECTION('',(1.,0.,0.));
#485=DIRECTION('',(0.,0.,1.));
#486=DIRECTION('',(1.,0.,0.));
#487=DIRECTION('',(0.,1.,0.));
#488=DIRECTION('',(0.,1.,0.));
#489=DIRECTION('',(0.,0.,1.));
#490=DIRECTION('',(1.,0.,0.));
#491=DIRECTION('',(0.,0.,1.));
#492=DIRECTION('',(1.,0.,0.));
#493=DIRECTION('',(0.,0.,1.));
#494=DIRECTION('',(1.,0.,0.));
#495=DIRECTION('',(0.,0.,1.));
#496=DIRECTION('',(1.,0.,0.));
#497=DIRECTION('',(-2.39272203583008E-16,0.,-1.));
#498=DIRECTION('',(-1.,0.,2.39272203583008E-16));
#499=DIRECTION('',(0.,1.,0.));
#500=DIRECTION('',(0.,1.,0.));
#501=DIRECTION('',(1.,0.,0.));
#502=DIRECTION('',(0.,0.,-1.));
#503=DIRECTION('',(1.,0.,0.));
#504=DIRECTION('',(0.,0.,-1.));
#505=CARTESIAN_POINT('',(0.,0.,0.));
#506=CARTESIAN_POINT('',(-1.38777878078145E-17,0.03495,0.012));
#507=CARTESIAN_POINT('',(-1.38777878078145E-17,0.03495,0.));
#508=CARTESIAN_POINT('',(0.02445,0.03495,0.));
#509=CARTESIAN_POINT('',(-0.02445,0.03495,0.));
#510=CARTESIAN_POINT('',(-0.02445,0.03495,0.012));
#511=CARTESIAN_POINT('',(-0.02445,0.03495,0.012));
#512=CARTESIAN_POINT('',(-1.38777878078145E-17,0.03495,0.012));
#513=CARTESIAN_POINT('',(0.02445,0.03495,0.012));
#514=CARTESIAN_POINT('',(0.02445,0.03495,0.012));
#515=CARTESIAN_POINT('',(0.0092,0.03495,0.01));
#516=CARTESIAN_POINT('',(0.01645,0.03495,0.01));
#517=CARTESIAN_POINT('',(0.00195,0.03495,0.01));
#518=CARTESIAN_POINT('',(0.00195,0.03495,0.006));
#519=CARTESIAN_POINT('',(0.00195,0.03495,0.002));
#520=CARTESIAN_POINT('',(0.0092,0.03495,0.002));
#521=CARTESIAN_POINT('',(0.01645,0.03495,0.002));
#522=CARTESIAN_POINT('',(0.01645,0.03495,0.006));
#523=CARTESIAN_POINT('',(0.,0.,0.));
#524=CARTESIAN_POINT('',(1.7347234759768E-17,-0.03495,0.));
#525=CARTESIAN_POINT('',(0.02445,-0.03495,0.));
#526=CARTESIAN_POINT('',(-0.02445,-0.03495,0.));
#527=CARTESIAN_POINT('',(-0.02445,-6.93889390390723E-18,0.));
#528=CARTESIAN_POINT('',(0.02445,0.,0.));
#529=CARTESIAN_POINT('',(-3.46944695195361E-18,0.03095,0.012));
#530=CARTESIAN_POINT('',(-3.94799135911963E-18,0.03095,0.01));
#531=CARTESIAN_POINT('',(0.01645,0.03095,0.01));
#532=CARTESIAN_POINT('',(0.00195,0.03095,0.01));
#533=CARTESIAN_POINT('',(0.01645,0.03095,0.012));
#534=CARTESIAN_POINT('',(0.01645,0.03095,0.002));
#535=CARTESIAN_POINT('',(-3.46944695195361E-18,0.03095,0.002));
#536=CARTESIAN_POINT('',(0.02045,0.03095,0.002));
#537=CARTESIAN_POINT('',(0.02045,0.03095,0.012));
#538=CARTESIAN_POINT('',(0.02045,0.03095,0.012));
#539=CARTESIAN_POINT('',(-3.46944695195361E-18,0.03095,0.012));
#540=CARTESIAN_POINT('',(-0.02045,0.03095,0.012));
#541=CARTESIAN_POINT('',(-0.02045,0.03095,0.012));
#542=CARTESIAN_POINT('',(-0.02045,0.03095,0.002));
#543=CARTESIAN_POINT('',(-3.46944695195361E-18,0.03095,0.002));
#544=CARTESIAN_POINT('',(0.00195,0.03095,0.002));
#545=CARTESIAN_POINT('',(0.00195,0.03095,0.012));
#546=CARTESIAN_POINT('',(-0.02045,0.,0.012));
#547=CARTESIAN_POINT('',(-0.02045,0.,0.002));
#548=CARTESIAN_POINT('',(-0.02045,-0.03095,0.002));
#549=CARTESIAN_POINT('',(-0.02045,0.,0.012));
#550=CARTESIAN_POINT('',(-0.02045,-0.03095,0.012));
#551=CARTESIAN_POINT('',(-0.02045,-0.03095,0.012));
#552=CARTESIAN_POINT('',(0.,-0.03095,0.012));
#553=CARTESIAN_POINT('',(0.,-0.03095,0.002));
#554=CARTESIAN_POINT('',(0.02045,-0.03095,0.002));
#555=CARTESIAN_POINT('',(0.,-0.03095,0.012));
#556=CARTESIAN_POINT('',(0.02045,-0.03095,0.012));
#557=CARTESIAN_POINT('',(0.02045,-0.03095,0.012));
#558=CARTESIAN_POINT('',(0.02045,-3.46944695195361E-18,0.012));
#559=CARTESIAN_POINT('',(0.02045,-3.46944695195361E-18,0.002));
#560=CARTESIAN_POINT('',(0.02045,-3.46944695195361E-18,0.012));
#561=CARTESIAN_POINT('',(1.7347234759768E-17,-0.03495,0.012));
#562=CARTESIAN_POINT('',(0.02445,-0.03495,0.012));
#563=CARTESIAN_POINT('',(0.02445,-0.03495,0.012));
#564=CARTESIAN_POINT('',(1.7347234759768E-17,-0.03495,0.012));
#565=CARTESIAN_POINT('',(-0.02445,-0.03495,0.012));
#566=CARTESIAN_POINT('',(-0.02445,-0.03495,0.012));
#567=CARTESIAN_POINT('',(0.02445,0.,0.012));
#568=CARTESIAN_POINT('',(0.02445,0.,0.012));
#569=CARTESIAN_POINT('',(0.02245,0.03295,0.012));
#570=CARTESIAN_POINT('',(0.02245,0.03295,0.002));
#571=CARTESIAN_POINT('',(0.0239,0.03295,0.002));
#572=CARTESIAN_POINT('',(0.02245,0.03295,0.012));
#573=CARTESIAN_POINT('',(0.0239,0.03295,0.012));
#574=CARTESIAN_POINT('',(-0.02245,0.03295,0.012));
#575=CARTESIAN_POINT('',(-0.02245,0.03295,0.002));
#576=CARTESIAN_POINT('',(-0.021,0.03295,0.002));
#577=CARTESIAN_POINT('',(-0.02245,0.03295,0.012));
#578=CARTESIAN_POINT('',(-0.021,0.03295,0.012));
#579=CARTESIAN_POINT('',(-0.02245,-0.03295,0.012));
#580=CARTESIAN_POINT('',(-0.02245,-0.03295,0.002));
#581=CARTESIAN_POINT('',(-0.021,-0.03295,0.002));
#582=CARTESIAN_POINT('',(-0.02245,-0.03295,0.012));
#583=CARTESIAN_POINT('',(-0.021,-0.03295,0.012));
#584=CARTESIAN_POINT('',(0.02245,-0.03295,0.012));
#585=CARTESIAN_POINT('',(0.02245,-0.03295,0.002));
#586=CARTESIAN_POINT('',(0.0239,-0.03295,0.002));
#587=CARTESIAN_POINT('',(0.02245,-0.03295,0.012));
#588=CARTESIAN_POINT('',(0.0239,-0.03295,0.012));
#589=CARTESIAN_POINT('',(-0.02445,-6.93889390390723E-18,0.012));
#590=CARTESIAN_POINT('',(-0.02445,-6.93889390390723E-18,0.012));
#591=CARTESIAN_POINT('',(0.,0.,0.012));
#592=CARTESIAN_POINT('',(0.,0.,0.002));
#593=CARTESIAN_POINT('',(0.01645,0.00995,0.002));
#594=CARTESIAN_POINT('',(0.00195,0.00995,0.002));
#595=CARTESIAN_POINT('',(0.,0.,0.002));
#596=CARTESIAN_POINT('',(0.,0.,0.002));
#597=CARTESIAN_POINT('',(0.,0.,0.002));
#598=CARTESIAN_POINT('',(0.,0.,0.002));
#599=CARTESIAN_POINT('',(0.0092,0.00995,0.01));
#600=CARTESIAN_POINT('',(0.00195,0.00995,0.01));
#601=CARTESIAN_POINT('',(0.01645,0.00995,0.01));
#602=CARTESIAN_POINT('',(0.01645,0.00995,0.006));
#603=CARTESIAN_POINT('',(0.00195,0.00995,0.006));
#604=MECHANICAL_DESIGN_GEOMETRIC_PRESENTATION_REPRESENTATION('',(#365),
#605);
#605=(
GEOMETRIC_REPRESENTATION_CONTEXT(3)
GLOBAL_UNCERTAINTY_ASSIGNED_CONTEXT((#606))
GLOBAL_UNIT_ASSIGNED_CONTEXT((#609,#608,#607))
REPRESENTATION_CONTEXT('Part 1','TOP_LEVEL_ASSEMBLY_PART')
);
#606=UNCERTAINTY_MEASURE_WITH_UNIT(LENGTH_MEASURE(1.E-8),#609,
'DISTANCE_ACCURACY_VALUE','Maximum Tolerance applied to model');
#607=(
NAMED_UNIT(*)
SI_UNIT($,.STERADIAN.)
SOLID_ANGLE_UNIT()
);
#608=(
NAMED_UNIT(*)
PLANE_ANGLE_UNIT()
SI_UNIT($,.RADIAN.)
);
#609=(
LENGTH_UNIT()
NAMED_UNIT(*)
SI_UNIT($,.METRE.)
);
#610=PRODUCT_DEFINITION_SHAPE('','',#611);
#611=PRODUCT_DEFINITION('','',#613,#612);
#612=PRODUCT_DEFINITION_CONTEXT('',#619,'design');
#613=PRODUCT_DEFINITION_FORMATION_WITH_SPECIFIED_SOURCE('','',#615,
 .NOT_KNOWN.);
#614=PRODUCT_RELATED_PRODUCT_CATEGORY('','',(#615));
#615=PRODUCT('Part 1','Part 1','Part 1',(#617));
#616=PRODUCT_CATEGORY('','');
#617=PRODUCT_CONTEXT('',#619,'mechanical');
#618=APPLICATION_PROTOCOL_DEFINITION('international standard',
'ap242_managed_model_based_3d_engineering',2020,#619);
#619=APPLICATION_CONTEXT('managed model based 3d engineering');
ENDSEC;
END-ISO-10303-21;
